<svg xmlns="http://www.w3.org/2000/svg" version="1.1" viewBox="0.00 0.00 1000.00 1000.00" width="1000.00" height="1000.00">
<g stroke-width="2.00" fill="none" stroke-linecap="butt">
<path stroke="#80bd80" d="&#10;  M 362.47 878.73&#10;  C 365.51 879.27 368.69 880.57 371.91 881.16&#10;  Q 377.61 882.20 379.03 882.57&#10;  Q 383.96 883.83 387.75 884.58&#10;  C 448.26 896.53 512.72 899.77 574.30 894.02&#10;  Q 584.17 893.10 594.15 891.56&#10;  Q 608.91 889.28 623.54 886.32&#10;  Q 632.26 884.56 640.87 882.24&#10;  C 642.89 881.69 645.04 881.60 646.94 881.00&#10;  C 652.83 879.14 658.87 877.91 664.74 876.11&#10;  C 670.13 874.47 675.51 873.17 680.78 871.32&#10;  C 685.43 869.69 690.66 868.47 695.51 866.47&#10;  Q 696.34 866.13 697.31 866.03&#10;  C 699.96 865.74 703.03 863.85 705.65 862.99&#10;  C 710.33 861.44 713.81 859.95 717.96 858.54&#10;  C 721.47 857.35 724.93 855.57 728.57 854.33&#10;  Q 730.20 853.78 732.89 852.54&#10;  C 736.34 850.96 739.42 849.99 743.51 847.91&#10;  C 745.41 846.94 747.67 846.30 749.72 845.28&#10;  Q 753.69 843.30 753.82 843.24&#10;  Q 763.10 839.02 777.01 831.64&#10;  C 840.86 797.77 895.17 751.81 935.33 691.89&#10;  C 948.81 671.79 960.40 650.67 970.86 628.87&#10;  Q 977.52 614.97 982.27 600.32&#10;  C 982.61 599.25 982.86 597.55 983.37 596.00&#10;  C 987.50 583.45 987.22 568.14 985.08 554.99&#10;  Q 982.10 536.67 978.33 518.49&#10;  C 975.09 502.88 968.67 483.22 958.20 470.80&#10;  Q 937.25 445.95 909.24 429.61&#10;  C 905.97 427.71 901.67 425.97 898.00 423.87&#10;  Q 897.50 423.59 896.77 423.62&#10;  Q 896.27 423.65 895.82 423.42&#10;  C 889.44 420.16 883.51 418.81 878.46 416.92&#10;  Q 877.83 416.68 878.18 416.11&#10;  C 904.44 373.32 911.94 323.17 892.68 276.28&#10;  C 879.54 244.30 856.23 216.65 827.78 196.99&#10;  Q 823.03 193.70 813.47 187.54&#10;  Q 813.05 187.27 812.75 187.31&#10;  Q 803.96 181.93 794.80 177.23&#10;  Q 769.49 164.22 743.57 152.71&#10;  A 29.88 29.01 72.4 0 1 739.66 150.61&#10;  C 738.22 149.70 734.69 148.83 732.37 147.75&#10;  Q 730.61 146.92 727.50 145.62&#10;  Q 717.76 141.56 707.94 137.69&#10;  Q 707.76 137.61 707.55 137.62&#10;  C 704.43 137.72 699.68 133.56 696.75 133.88&#10;  Q 696.26 133.94 695.81 133.74&#10;  Q 689.82 131.18 683.56 129.42&#10;  Q 680.51 128.56 677.49 127.57&#10;  Q 674.64 126.62 671.42 125.83&#10;  C 667.56 124.89 663.53 123.50 659.97 122.64&#10;  Q 651.34 120.57 642.70 118.56&#10;  Q 607.65 110.44 571.86 106.76&#10;  C 488.96 98.22 403.69 105.46 323.81 129.43&#10;  Q 323.43 129.54 322.69 129.54&#10;  C 321.72 129.55 321.10 130.09 320.45 130.29&#10;  Q 300.23 136.64 283.75 142.80&#10;  C 227.63 163.79 175.32 194.24 131.21 235.21&#10;  Q 110.69 254.27 91.23 279.23&#10;  C 59.91 319.40 33.73 364.11 21.84 412.50&#10;  C 3.12 488.69 17.38 569.60 48.59 640.97&#10;  Q 50.88 646.22 53.25 651.44&#10;  Q 61.01 668.59 71.77 684.06&#10;  Q 95.09 717.60 124.06 746.42&#10;  Q 188.82 810.84 272.46 847.69&#10;  Q 272.86 847.87 272.99 848.16&#10;  Q 273.19 848.59 273.65 848.75&#10;  Q 278.77 850.46 283.63 852.74&#10;  C 286.47 854.08 289.40 855.00 292.29 856.24&#10;  C 297.32 858.40 302.28 859.96 307.17 862.14&#10;  C 308.61 862.78 310.15 862.52 311.70 863.29&#10;  Q 314.30 864.59 314.76 864.74&#10;  Q 322.01 866.95 329.14 869.55&#10;  C 331.65 870.46 334.93 870.80 337.73 872.15&#10;  Q 338.40 872.46 339.11 872.65&#10;  C 342.52 873.54 345.83 874.08 349.20 875.26&#10;  Q 355.69 877.53 362.47 878.73"/>
<path stroke="#713f01" d="&#10;  M 311.28 211.72&#10;  Q 298.21 219.06 288.61 230.26"/>
<path stroke="#80bd80" d="&#10;  M 288.61 230.26&#10;  C 280.30 237.35 273.60 244.08 266.93 250.34&#10;  Q 264.33 252.79 264.14 252.97&#10;  C 230.03 287.62 201.49 329.02 185.01 375.14&#10;  C 166.49 426.97 158.35 483.31 164.70 536.50&#10;  Q 167.86 562.92 174.98 588.53&#10;  C 176.06 592.41 177.44 596.20 178.60 600.07&#10;  C 179.59 603.35 181.01 606.29 182.11 609.49&#10;  Q 183.91 614.73 184.79 616.95&#10;  Q 210.16 680.27 257.35 729.65&#10;  Q 267.32 740.08 278.45 749.48&#10;  Q 279.10 750.04 279.11 749.18&#10;  C 280.12 635.00 281.02 520.82 281.99 406.64&#10;  C 282.08 396.58 282.82 390.46 288.90 383.40&#10;  Q 296.72 374.32 307.86 369.87&#10;  Q 311.21 368.54 314.61 367.26&#10;  Q 318.11 365.94 321.54 365.33&#10;  Q 340.45 361.97 359.66 363.28&#10;  Q 360.54 363.34 362.32 363.62&#10;  C 364.57 363.98 366.93 363.91 368.97 364.33&#10;  C 373.08 365.18 377.08 365.46 380.91 367.36&#10;  C 383.83 368.81 386.64 369.92 389.54 371.75&#10;  C 393.89 374.48 397.56 376.87 402.50 381.50&#10;  C 406.59 385.33 412.07 392.47 412.11 398.02&#10;  C 413.11 512.74 412.49 667.51 413.42 820.50&#10;  C 413.42 821.35 413.46 822.07 413.98 822.80&#10;  C 423.37 835.96 437.65 843.17 453.88 841.02&#10;  A 0.44 0.44 0.0 0 0 454.26 840.58&#10;  Q 454.14 822.35 454.66 804.01&#10;  C 455.13 787.67 454.86 771.69 455.40 755.00&#10;  C 455.99 736.83 455.81 718.63 456.29 700.51&#10;  C 456.78 681.92 456.56 663.36 457.07 644.76&#10;  C 457.58 626.09 457.28 607.43 457.80 588.76&#10;  C 458.31 570.33 458.07 551.86 458.52 533.50&#10;  C 459.00 513.58 458.77 493.67 459.39 473.76&#10;  C 460.01 454.33 459.79 434.89 460.23 415.51&#10;  C 460.73 393.17 460.53 370.84 461.01 348.50&#10;  Q 461.44 328.26 461.54 308.01&#10;  Q 461.61 294.08 462.78 288.09&#10;  Q 465.43 274.62 473.43 262.45&#10;  Q 483.92 246.50 488.28 240.77&#10;  C 513.10 208.10 544.57 180.33 580.64 160.78&#10;  C 596.67 152.09 610.96 146.14 627.32 141.51&#10;  C 630.70 140.56 634.20 140.63 637.27 138.68&#10;  A 0.63 0.63 0.0 0 0 637.18 137.58&#10;  Q 628.23 133.65 618.51 132.83&#10;  Q 618.11 132.80 618.51 132.77&#10;  L 620.53 132.64&#10;  Q 620.72 132.63 620.53 132.58&#10;  C 618.22 132.00 615.65 132.11 613.50 131.75&#10;  Q 603.32 130.05 592.99 129.49&#10;  Q 588.19 129.23 583.42 128.85&#10;  Q 580.38 128.61 577.34 128.48&#10;  Q 570.19 128.19 554.25 128.35&#10;  Q 514.44 128.74 475.50 136.97&#10;  Q 467.74 138.61 460.01 140.41&#10;  C 455.50 141.45 451.32 142.86 446.62 144.01&#10;  Q 441.19 145.34 436.01 147.48&#10;  C 435.32 147.77 434.45 147.51 433.67 147.78&#10;  C 429.60 149.14 425.91 150.65 421.59 152.05&#10;  C 417.74 153.30 414.41 154.85 410.23 156.22&#10;  C 407.58 157.09 405.28 158.61 402.58 159.33&#10;  C 399.04 160.27 395.31 162.63 391.75 163.97&#10;  C 389.41 164.85 387.31 166.19 384.96 167.21&#10;  Q 381.57 168.67 379.85 169.56&#10;  Q 376.94 171.06 373.95 172.40&#10;  C 372.63 172.98 371.33 174.06 369.87 174.67&#10;  Q 367.48 175.68 366.75 176.11&#10;  C 359.64 180.25 351.98 183.79 345.14 188.52&#10;  C 343.36 189.75 341.26 190.82 339.66 191.86&#10;  Q 332.16 196.73 324.73 201.73&#10;  Q 322.94 202.93 322.51 203.57&#10;  A 0.69 0.69 0.0 0 1 322.34 203.74&#10;  L 311.28 211.72"/>
<path stroke="#f08181" d="&#10;  M 288.61 230.26&#10;  Q 280.01 240.93 275.88 252.26&#10;  C 274.54 255.96 272.78 261.77 272.18 266.36&#10;  C 270.94 275.83 270.47 287.20 273.18 296.44&#10;  C 274.38 300.51 275.38 304.76 277.24 308.58&#10;  C 279.15 312.50 281.11 316.56 283.40 319.99&#10;  Q 300.25 345.19 330.02 352.68&#10;  C 332.53 353.31 335.39 353.41 338.07 353.83&#10;  Q 340.23 354.16 342.41 354.26&#10;  Q 346.50 354.43 354.29 354.07&#10;  C 355.77 354.00 357.46 353.33 359.10 353.40&#10;  Q 361.44 353.50 362.60 353.17&#10;  Q 371.38 350.71 374.50 349.42&#10;  C 396.31 340.37 413.30 322.86 419.75 300.02&#10;  C 431.52 258.38 407.98 217.70 367.28 205.61&#10;  C 357.38 202.67 346.64 202.43 338.25 203.17&#10;  Q 333.92 203.55 327.39 205.66&#10;  C 325.25 206.35 323.23 206.14 321.10 207.19&#10;  Q 316.28 209.56 311.28 211.72"/>
<path stroke="#80bd80" d="&#10;  M 622.06 532.72&#10;  L 621.05 445.24&#10;  A 0.65 0.64 22.1 0 1 622.15 444.78&#10;  C 638.96 461.37 663.08 471.74 687.00 470.97&#10;  Q 701.72 470.49 717.19 466.61&#10;  C 728.96 463.65 740.21 458.92 751.03 453.26&#10;  Q 794.52 430.53 827.13 393.88&#10;  C 832.86 387.44 837.94 379.84 843.84 372.53&#10;  C 854.16 359.75 862.94 343.88 866.15 328.76&#10;  C 874.00 291.73 856.53 253.07 820.96 238.28&#10;  Q 809.76 233.62 806.25 233.16&#10;  C 800.91 232.46 795.38 231.13 790.41 230.75&#10;  C 777.61 229.76 767.63 231.21 756.13 233.18&#10;  C 750.80 234.09 745.61 235.68 740.32 237.07&#10;  C 737.59 237.79 734.96 239.00 732.21 239.92&#10;  Q 728.25 241.24 726.16 242.14&#10;  Q 721.98 243.94 717.84 245.83&#10;  Q 703.18 252.51 689.63 261.20&#10;  Q 658.48 281.16 632.66 307.65&#10;  Q 598.39 342.82 582.39 391.24&#10;  Q 581.49 393.98 581.49 394.75&#10;  Q 581.35 616.63 580.61 838.50&#10;  C 580.59 845.26 586.10 850.68 592.22 852.77&#10;  Q 604.79 857.08 616.33 850.54&#10;  Q 624.20 846.09 624.20 837.75&#10;  C 624.19 796.83 624.95 755.92 625.00 715.00&#10;  Q 625.05 669.37 626.18 623.75&#10;  Q 626.22 622.11 627.53 619.76&#10;  Q 651.64 576.50 675.67 533.32&#10;  A 0.22 0.22 0.0 0 0 675.48 533.00&#10;  L 622.47 533.12&#10;  A 0.41 0.41 0.0 0 1 622.06 532.72"/>
<path stroke="#80bd80" d="&#10;  M 814.87 785.93&#10;  C 818.93 784.00 822.70 781.27 826.54 778.89&#10;  Q 830.09 776.69 833.50 774.27&#10;  C 853.44 760.12 871.08 744.47 886.14 725.14&#10;  Q 886.52 724.65 886.64 724.21&#10;  A 0.19 0.19 0.0 0 0 886.34 724.01&#10;  Q 864.98 741.50 841.88 756.89&#10;  Q 822.67 769.68 801.90 779.69&#10;  Q 800.63 780.30 798.53 781.06&#10;  C 795.63 782.11 792.67 783.67 790.06 784.51&#10;  Q 784.81 786.21 779.54 787.82&#10;  C 775.99 788.91 772.18 789.16 768.49 789.72&#10;  A 0.53 0.53 0.0 0 1 767.88 789.20&#10;  L 767.15 692.53&#10;  A 1.02 1.01 4.8 0 1 768.34 691.53&#10;  C 816.62 699.98 864.43 678.34 898.80 645.55&#10;  C 934.06 611.91 966.38 574.81 958.55 521.72&#10;  C 957.93 517.50 956.52 512.01 955.08 508.20&#10;  C 947.19 487.31 933.45 471.98 912.89 463.62&#10;  C 907.41 461.39 900.40 459.81 894.75 459.01&#10;  Q 887.82 458.03 879.55 459.48&#10;  Q 876.02 460.10 872.51 460.85&#10;  Q 869.21 461.56 865.70 463.02&#10;  C 862.00 464.55 858.24 465.99 854.76 467.76&#10;  Q 838.13 476.24 826.71 485.19&#10;  Q 800.68 505.58 774.39 534.39&#10;  C 762.51 547.41 754.24 558.55 748.33 573.53&#10;  Q 742.99 587.04 740.03 601.26&#10;  C 730.55 646.82 733.21 695.28 732.25 742.50&#10;  C 731.72 768.04 730.76 793.74 731.00 819.29&#10;  A 0.51 0.51 0.0 0 0 731.67 819.77&#10;  C 736.43 818.19 741.74 817.28 746.06 815.87&#10;  Q 760.94 811.01 766.00 809.13&#10;  Q 770.70 807.38 784.90 801.37&#10;  C 786.25 800.80 787.75 799.90 789.28 799.32&#10;  Q 791.59 798.43 792.59 797.91&#10;  Q 799.52 794.33 806.52 790.93&#10;  Q 808.74 789.84 810.72 788.40&#10;  Q 812.64 786.99 814.87 785.93"/>
</g>
<path fill="#ffffff" d="&#10;  M 0.00 0.00&#10;  L 1000.00 0.00&#10;  L 1000.00 1000.00&#10;  L 0.00 1000.00&#10;  L 0.00 0.00&#10;  Z&#10;  M 362.47 878.73&#10;  C 365.51 879.27 368.69 880.57 371.91 881.16&#10;  Q 377.61 882.20 379.03 882.57&#10;  Q 383.96 883.83 387.75 884.58&#10;  C 448.26 896.53 512.72 899.77 574.30 894.02&#10;  Q 584.17 893.10 594.15 891.56&#10;  Q 608.91 889.28 623.54 886.32&#10;  Q 632.26 884.56 640.87 882.24&#10;  C 642.89 881.69 645.04 881.60 646.94 881.00&#10;  C 652.83 879.14 658.87 877.91 664.74 876.11&#10;  C 670.13 874.47 675.51 873.17 680.78 871.32&#10;  C 685.43 869.69 690.66 868.47 695.51 866.47&#10;  Q 696.34 866.13 697.31 866.03&#10;  C 699.96 865.74 703.03 863.85 705.65 862.99&#10;  C 710.33 861.44 713.81 859.95 717.96 858.54&#10;  C 721.47 857.35 724.93 855.57 728.57 854.33&#10;  Q 730.20 853.78 732.89 852.54&#10;  C 736.34 850.96 739.42 849.99 743.51 847.91&#10;  C 745.41 846.94 747.67 846.30 749.72 845.28&#10;  Q 753.69 843.30 753.82 843.24&#10;  Q 763.10 839.02 777.01 831.64&#10;  C 840.86 797.77 895.17 751.81 935.33 691.89&#10;  C 948.81 671.79 960.40 650.67 970.86 628.87&#10;  Q 977.52 614.97 982.27 600.32&#10;  C 982.61 599.25 982.86 597.55 983.37 596.00&#10;  C 987.50 583.45 987.22 568.14 985.08 554.99&#10;  Q 982.10 536.67 978.33 518.49&#10;  C 975.09 502.88 968.67 483.22 958.20 470.80&#10;  Q 937.25 445.95 909.24 429.61&#10;  C 905.97 427.71 901.67 425.97 898.00 423.87&#10;  Q 897.50 423.59 896.77 423.62&#10;  Q 896.27 423.65 895.82 423.42&#10;  C 889.44 420.16 883.51 418.81 878.46 416.92&#10;  Q 877.83 416.68 878.18 416.11&#10;  C 904.44 373.32 911.94 323.17 892.68 276.28&#10;  C 879.54 244.30 856.23 216.65 827.78 196.99&#10;  Q 823.03 193.70 813.47 187.54&#10;  Q 813.05 187.27 812.75 187.31&#10;  Q 803.96 181.93 794.80 177.23&#10;  Q 769.49 164.22 743.57 152.71&#10;  A 29.88 29.01 72.4 0 1 739.66 150.61&#10;  C 738.22 149.70 734.69 148.83 732.37 147.75&#10;  Q 730.61 146.92 727.50 145.62&#10;  Q 717.76 141.56 707.94 137.69&#10;  Q 707.76 137.61 707.55 137.62&#10;  C 704.43 137.72 699.68 133.56 696.75 133.88&#10;  Q 696.26 133.94 695.81 133.74&#10;  Q 689.82 131.18 683.56 129.42&#10;  Q 680.51 128.56 677.49 127.57&#10;  Q 674.64 126.62 671.42 125.83&#10;  C 667.56 124.89 663.53 123.50 659.97 122.64&#10;  Q 651.34 120.57 642.70 118.56&#10;  Q 607.65 110.44 571.86 106.76&#10;  C 488.96 98.22 403.69 105.46 323.81 129.43&#10;  Q 323.43 129.54 322.69 129.54&#10;  C 321.72 129.55 321.10 130.09 320.45 130.29&#10;  Q 300.23 136.64 283.75 142.80&#10;  C 227.63 163.79 175.32 194.24 131.21 235.21&#10;  Q 110.69 254.27 91.23 279.23&#10;  C 59.91 319.40 33.73 364.11 21.84 412.50&#10;  C 3.12 488.69 17.38 569.60 48.59 640.97&#10;  Q 50.88 646.22 53.25 651.44&#10;  Q 61.01 668.59 71.77 684.06&#10;  Q 95.09 717.60 124.06 746.42&#10;  Q 188.82 810.84 272.46 847.69&#10;  Q 272.86 847.87 272.99 848.16&#10;  Q 273.19 848.59 273.65 848.75&#10;  Q 278.77 850.46 283.63 852.74&#10;  C 286.47 854.08 289.40 855.00 292.29 856.24&#10;  C 297.32 858.40 302.28 859.96 307.17 862.14&#10;  C 308.61 862.78 310.15 862.52 311.70 863.29&#10;  Q 314.30 864.59 314.76 864.74&#10;  Q 322.01 866.95 329.14 869.55&#10;  C 331.65 870.46 334.93 870.80 337.73 872.15&#10;  Q 338.40 872.46 339.11 872.65&#10;  C 342.52 873.54 345.83 874.08 349.20 875.26&#10;  Q 355.69 877.53 362.47 878.73&#10;  Z"/>
<path fill="#007b00" d="&#10;  M 362.47 878.73&#10;  Q 355.69 877.53 349.20 875.26&#10;  C 345.83 874.08 342.52 873.54 339.11 872.65&#10;  Q 338.40 872.46 337.73 872.15&#10;  C 334.93 870.80 331.65 870.46 329.14 869.55&#10;  Q 322.01 866.95 314.76 864.74&#10;  Q 314.30 864.59 311.70 863.29&#10;  C 310.15 862.52 308.61 862.78 307.17 862.14&#10;  C 302.28 859.96 297.32 858.40 292.29 856.24&#10;  C 289.40 855.00 286.47 854.08 283.63 852.74&#10;  Q 278.77 850.46 273.65 848.75&#10;  Q 273.19 848.59 272.99 848.16&#10;  Q 272.86 847.87 272.46 847.69&#10;  Q 188.82 810.84 124.06 746.42&#10;  Q 95.09 717.60 71.77 684.06&#10;  Q 61.01 668.59 53.25 651.44&#10;  Q 50.88 646.22 48.59 640.97&#10;  C 17.38 569.60 3.12 488.69 21.84 412.50&#10;  C 33.73 364.11 59.91 319.40 91.23 279.23&#10;  Q 110.69 254.27 131.21 235.21&#10;  C 175.32 194.24 227.63 163.79 283.75 142.80&#10;  Q 300.23 136.64 320.45 130.29&#10;  C 321.10 130.09 321.72 129.55 322.69 129.54&#10;  Q 323.43 129.54 323.81 129.43&#10;  C 403.69 105.46 488.96 98.22 571.86 106.76&#10;  Q 607.65 110.44 642.70 118.56&#10;  Q 651.34 120.57 659.97 122.64&#10;  C 663.53 123.50 667.56 124.89 671.42 125.83&#10;  Q 674.64 126.62 677.49 127.57&#10;  Q 680.51 128.56 683.56 129.42&#10;  Q 689.82 131.18 695.81 133.74&#10;  Q 696.26 133.94 696.75 133.88&#10;  C 699.68 133.56 704.43 137.72 707.55 137.62&#10;  Q 707.76 137.61 707.94 137.69&#10;  Q 717.76 141.56 727.50 145.62&#10;  Q 730.61 146.92 732.37 147.75&#10;  C 734.69 148.83 738.22 149.70 739.66 150.61&#10;  A 29.88 29.01 72.4 0 0 743.57 152.71&#10;  Q 769.49 164.22 794.80 177.23&#10;  Q 803.96 181.93 812.75 187.31&#10;  Q 813.05 187.27 813.47 187.54&#10;  Q 823.03 193.70 827.78 196.99&#10;  C 856.23 216.65 879.54 244.30 892.68 276.28&#10;  C 911.94 323.17 904.44 373.32 878.18 416.11&#10;  Q 877.83 416.68 878.46 416.92&#10;  C 883.51 418.81 889.44 420.16 895.82 423.42&#10;  Q 896.27 423.65 896.77 423.62&#10;  Q 897.50 423.59 898.00 423.87&#10;  C 901.67 425.97 905.97 427.71 909.24 429.61&#10;  Q 937.25 445.95 958.20 470.80&#10;  C 968.67 483.22 975.09 502.88 978.33 518.49&#10;  Q 982.10 536.67 985.08 554.99&#10;  C 987.22 568.14 987.50 583.45 983.37 596.00&#10;  C 982.86 597.55 982.61 599.25 982.27 600.32&#10;  Q 977.52 614.97 970.86 628.87&#10;  C 960.40 650.67 948.81 671.79 935.33 691.89&#10;  C 895.17 751.81 840.86 797.77 777.01 831.64&#10;  Q 763.10 839.02 753.82 843.24&#10;  Q 753.69 843.30 749.72 845.28&#10;  C 747.67 846.30 745.41 846.94 743.51 847.91&#10;  C 739.42 849.99 736.34 850.96 732.89 852.54&#10;  Q 730.20 853.78 728.57 854.33&#10;  C 724.93 855.57 721.47 857.35 717.96 858.54&#10;  C 713.81 859.95 710.33 861.44 705.65 862.99&#10;  C 703.03 863.85 699.96 865.74 697.31 866.03&#10;  Q 696.34 866.13 695.51 866.47&#10;  C 690.66 868.47 685.43 869.69 680.78 871.32&#10;  C 675.51 873.17 670.13 874.47 664.74 876.11&#10;  C 658.87 877.91 652.83 879.14 646.94 881.00&#10;  C 645.04 881.60 642.89 881.69 640.87 882.24&#10;  Q 632.26 884.56 623.54 886.32&#10;  Q 608.91 889.28 594.15 891.56&#10;  Q 584.17 893.10 574.30 894.02&#10;  C 512.72 899.77 448.26 896.53 387.75 884.58&#10;  Q 383.96 883.83 379.03 882.57&#10;  Q 377.61 882.20 371.91 881.16&#10;  C 368.69 880.57 365.51 879.27 362.47 878.73&#10;  Z&#10;  M 311.28 211.72&#10;  Q 298.21 219.06 288.61 230.26&#10;  C 280.30 237.35 273.60 244.08 266.93 250.34&#10;  Q 264.33 252.79 264.14 252.97&#10;  C 230.03 287.62 201.49 329.02 185.01 375.14&#10;  C 166.49 426.97 158.35 483.31 164.70 536.50&#10;  Q 167.86 562.92 174.98 588.53&#10;  C 176.06 592.41 177.44 596.20 178.60 600.07&#10;  C 179.59 603.35 181.01 606.29 182.11 609.49&#10;  Q 183.91 614.73 184.79 616.95&#10;  Q 210.16 680.27 257.35 729.65&#10;  Q 267.32 740.08 278.45 749.48&#10;  Q 279.10 750.04 279.11 749.18&#10;  C 280.12 635.00 281.02 520.82 281.99 406.64&#10;  C 282.08 396.58 282.82 390.46 288.90 383.40&#10;  Q 296.72 374.32 307.86 369.87&#10;  Q 311.21 368.54 314.61 367.26&#10;  Q 318.11 365.94 321.54 365.33&#10;  Q 340.45 361.97 359.66 363.28&#10;  Q 360.54 363.34 362.32 363.62&#10;  C 364.57 363.98 366.93 363.91 368.97 364.33&#10;  C 373.08 365.18 377.08 365.46 380.91 367.36&#10;  C 383.83 368.81 386.64 369.92 389.54 371.75&#10;  C 393.89 374.48 397.56 376.87 402.50 381.50&#10;  C 406.59 385.33 412.07 392.47 412.11 398.02&#10;  C 413.11 512.74 412.49 667.51 413.42 820.50&#10;  C 413.42 821.35 413.46 822.07 413.98 822.80&#10;  C 423.37 835.96 437.65 843.17 453.88 841.02&#10;  A 0.44 0.44 0.0 0 0 454.26 840.58&#10;  Q 454.14 822.35 454.66 804.01&#10;  C 455.13 787.67 454.86 771.69 455.40 755.00&#10;  C 455.99 736.83 455.81 718.63 456.29 700.51&#10;  C 456.78 681.92 456.56 663.36 457.07 644.76&#10;  C 457.58 626.09 457.28 607.43 457.80 588.76&#10;  C 458.31 570.33 458.07 551.86 458.52 533.50&#10;  C 459.00 513.58 458.77 493.67 459.39 473.76&#10;  C 460.01 454.33 459.79 434.89 460.23 415.51&#10;  C 460.73 393.17 460.53 370.84 461.01 348.50&#10;  Q 461.44 328.26 461.54 308.01&#10;  Q 461.61 294.08 462.78 288.09&#10;  Q 465.43 274.62 473.43 262.45&#10;  Q 483.92 246.50 488.28 240.77&#10;  C 513.10 208.10 544.57 180.33 580.64 160.78&#10;  C 596.67 152.09 610.96 146.14 627.32 141.51&#10;  C 630.70 140.56 634.20 140.63 637.27 138.68&#10;  A 0.63 0.63 0.0 0 0 637.18 137.58&#10;  Q 628.23 133.65 618.51 132.83&#10;  Q 618.11 132.80 618.51 132.77&#10;  L 620.53 132.64&#10;  Q 620.72 132.63 620.53 132.58&#10;  C 618.22 132.00 615.65 132.11 613.50 131.75&#10;  Q 603.32 130.05 592.99 129.49&#10;  Q 588.19 129.23 583.42 128.85&#10;  Q 580.38 128.61 577.34 128.48&#10;  Q 570.19 128.19 554.25 128.35&#10;  Q 514.44 128.74 475.50 136.97&#10;  Q 467.74 138.61 460.01 140.41&#10;  C 455.50 141.45 451.32 142.86 446.62 144.01&#10;  Q 441.19 145.34 436.01 147.48&#10;  C 435.32 147.77 434.45 147.51 433.67 147.78&#10;  C 429.60 149.14 425.91 150.65 421.59 152.05&#10;  C 417.74 153.30 414.41 154.85 410.23 156.22&#10;  C 407.58 157.09 405.28 158.61 402.58 159.33&#10;  C 399.04 160.27 395.31 162.63 391.75 163.97&#10;  C 389.41 164.85 387.31 166.19 384.96 167.21&#10;  Q 381.57 168.67 379.85 169.56&#10;  Q 376.94 171.06 373.95 172.40&#10;  C 372.63 172.98 371.33 174.06 369.87 174.67&#10;  Q 367.48 175.68 366.75 176.11&#10;  C 359.64 180.25 351.98 183.79 345.14 188.52&#10;  C 343.36 189.75 341.26 190.82 339.66 191.86&#10;  Q 332.16 196.73 324.73 201.73&#10;  Q 322.94 202.93 322.51 203.57&#10;  A 0.69 0.69 0.0 0 1 322.34 203.74&#10;  L 311.28 211.72&#10;  Z&#10;  M 622.06 532.72&#10;  L 621.05 445.24&#10;  A 0.65 0.64 22.1 0 1 622.15 444.78&#10;  C 638.96 461.37 663.08 471.74 687.00 470.97&#10;  Q 701.72 470.49 717.19 466.61&#10;  C 728.96 463.65 740.21 458.92 751.03 453.26&#10;  Q 794.52 430.53 827.13 393.88&#10;  C 832.86 387.44 837.94 379.84 843.84 372.53&#10;  C 854.16 359.75 862.94 343.88 866.15 328.76&#10;  C 874.00 291.73 856.53 253.07 820.96 238.28&#10;  Q 809.76 233.62 806.25 233.16&#10;  C 800.91 232.46 795.38 231.13 790.41 230.75&#10;  C 777.61 229.76 767.63 231.21 756.13 233.18&#10;  C 750.80 234.09 745.61 235.68 740.32 237.07&#10;  C 737.59 237.79 734.96 239.00 732.21 239.92&#10;  Q 728.25 241.24 726.16 242.14&#10;  Q 721.98 243.94 717.84 245.83&#10;  Q 703.18 252.51 689.63 261.20&#10;  Q 658.48 281.16 632.66 307.65&#10;  Q 598.39 342.82 582.39 391.24&#10;  Q 581.49 393.98 581.49 394.75&#10;  Q 581.35 616.63 580.61 838.50&#10;  C 580.59 845.26 586.10 850.68 592.22 852.77&#10;  Q 604.79 857.08 616.33 850.54&#10;  Q 624.20 846.09 624.20 837.75&#10;  C 624.19 796.83 624.95 755.92 625.00 715.00&#10;  Q 625.05 669.37 626.18 623.75&#10;  Q 626.22 622.11 627.53 619.76&#10;  Q 651.64 576.50 675.67 533.32&#10;  A 0.22 0.22 0.0 0 0 675.48 533.00&#10;  L 622.47 533.12&#10;  A 0.41 0.41 0.0 0 1 622.06 532.72&#10;  Z&#10;  M 814.87 785.93&#10;  C 818.93 784.00 822.70 781.27 826.54 778.89&#10;  Q 830.09 776.69 833.50 774.27&#10;  C 853.44 760.12 871.08 744.47 886.14 725.14&#10;  Q 886.52 724.65 886.64 724.21&#10;  A 0.19 0.19 0.0 0 0 886.34 724.01&#10;  Q 864.98 741.50 841.88 756.89&#10;  Q 822.67 769.68 801.90 779.69&#10;  Q 800.63 780.30 798.53 781.06&#10;  C 795.63 782.11 792.67 783.67 790.06 784.51&#10;  Q 784.81 786.21 779.54 787.82&#10;  C 775.99 788.91 772.18 789.16 768.49 789.72&#10;  A 0.53 0.53 0.0 0 1 767.88 789.20&#10;  L 767.15 692.53&#10;  A 1.02 1.01 4.8 0 1 768.34 691.53&#10;  C 816.62 699.98 864.43 678.34 898.80 645.55&#10;  C 934.06 611.91 966.38 574.81 958.55 521.72&#10;  C 957.93 517.50 956.52 512.01 955.08 508.20&#10;  C 947.19 487.31 933.45 471.98 912.89 463.62&#10;  C 907.41 461.39 900.40 459.81 894.75 459.01&#10;  Q 887.82 458.03 879.55 459.48&#10;  Q 876.02 460.10 872.51 460.85&#10;  Q 869.21 461.56 865.70 463.02&#10;  C 862.00 464.55 858.24 465.99 854.76 467.76&#10;  Q 838.13 476.24 826.71 485.19&#10;  Q 800.68 505.58 774.39 534.39&#10;  C 762.51 547.41 754.24 558.55 748.33 573.53&#10;  Q 742.99 587.04 740.03 601.26&#10;  C 730.55 646.82 733.21 695.28 732.25 742.50&#10;  C 731.72 768.04 730.76 793.74 731.00 819.29&#10;  A 0.51 0.51 0.0 0 0 731.67 819.77&#10;  C 736.43 818.19 741.74 817.28 746.06 815.87&#10;  Q 760.94 811.01 766.00 809.13&#10;  Q 770.70 807.38 784.90 801.37&#10;  C 786.25 800.80 787.75 799.90 789.28 799.32&#10;  Q 791.59 798.43 792.59 797.91&#10;  Q 799.52 794.33 806.52 790.93&#10;  Q 808.74 789.84 810.72 788.40&#10;  Q 812.64 786.99 814.87 785.93&#10;  Z"/>
<path fill="#ffffff" d="&#10;  M 288.61 230.26&#10;  Q 280.01 240.93 275.88 252.26&#10;  C 274.54 255.96 272.78 261.77 272.18 266.36&#10;  C 270.94 275.83 270.47 287.20 273.18 296.44&#10;  C 274.38 300.51 275.38 304.76 277.24 308.58&#10;  C 279.15 312.50 281.11 316.56 283.40 319.99&#10;  Q 300.25 345.19 330.02 352.68&#10;  C 332.53 353.31 335.39 353.41 338.07 353.83&#10;  Q 340.23 354.16 342.41 354.26&#10;  Q 346.50 354.43 354.29 354.07&#10;  C 355.77 354.00 357.46 353.33 359.10 353.40&#10;  Q 361.44 353.50 362.60 353.17&#10;  Q 371.38 350.71 374.50 349.42&#10;  C 396.31 340.37 413.30 322.86 419.75 300.02&#10;  C 431.52 258.38 407.98 217.70 367.28 205.61&#10;  C 357.38 202.67 346.64 202.43 338.25 203.17&#10;  Q 333.92 203.55 327.39 205.66&#10;  C 325.25 206.35 323.23 206.14 321.10 207.19&#10;  Q 316.28 209.56 311.28 211.72&#10;  L 322.34 203.74&#10;  A 0.69 0.69 0.0 0 0 322.51 203.57&#10;  Q 322.94 202.93 324.73 201.73&#10;  Q 332.16 196.73 339.66 191.86&#10;  C 341.26 190.82 343.36 189.75 345.14 188.52&#10;  C 351.98 183.79 359.64 180.25 366.75 176.11&#10;  Q 367.48 175.68 369.87 174.67&#10;  C 371.33 174.06 372.63 172.98 373.95 172.40&#10;  Q 376.94 171.06 379.85 169.56&#10;  Q 381.57 168.67 384.96 167.21&#10;  C 387.31 166.19 389.41 164.85 391.75 163.97&#10;  C 395.31 162.63 399.04 160.27 402.58 159.33&#10;  C 405.28 158.61 407.58 157.09 410.23 156.22&#10;  C 414.41 154.85 417.74 153.30 421.59 152.05&#10;  C 425.91 150.65 429.60 149.14 433.67 147.78&#10;  C 434.45 147.51 435.32 147.77 436.01 147.48&#10;  Q 441.19 145.34 446.62 144.01&#10;  C 451.32 142.86 455.50 141.45 460.01 140.41&#10;  Q 467.74 138.61 475.50 136.97&#10;  Q 514.44 128.74 554.25 128.35&#10;  Q 570.19 128.19 577.34 128.48&#10;  Q 580.38 128.61 583.42 128.85&#10;  Q 588.19 129.23 592.99 129.49&#10;  Q 603.32 130.05 613.50 131.75&#10;  C 615.65 132.11 618.22 132.00 620.53 132.58&#10;  Q 620.72 132.63 620.53 132.64&#10;  L 618.51 132.77&#10;  Q 618.11 132.80 618.51 132.83&#10;  Q 628.23 133.65 637.18 137.58&#10;  A 0.63 0.63 0.0 0 1 637.27 138.68&#10;  C 634.20 140.63 630.70 140.56 627.32 141.51&#10;  C 610.96 146.14 596.67 152.09 580.64 160.78&#10;  C 544.57 180.33 513.10 208.10 488.28 240.77&#10;  Q 483.92 246.50 473.43 262.45&#10;  Q 465.43 274.62 462.78 288.09&#10;  Q 461.61 294.08 461.54 308.01&#10;  Q 461.44 328.26 461.01 348.50&#10;  C 460.53 370.84 460.73 393.17 460.23 415.51&#10;  C 459.79 434.89 460.01 454.33 459.39 473.76&#10;  C 458.77 493.67 459.00 513.58 458.52 533.50&#10;  C 458.07 551.86 458.31 570.33 457.80 588.76&#10;  C 457.28 607.43 457.58 626.09 457.07 644.76&#10;  C 456.56 663.36 456.78 681.92 456.29 700.51&#10;  C 455.81 718.63 455.99 736.83 455.40 755.00&#10;  C 454.86 771.69 455.13 787.67 454.66 804.01&#10;  Q 454.14 822.35 454.26 840.58&#10;  A 0.44 0.44 0.0 0 1 453.88 841.02&#10;  C 437.65 843.17 423.37 835.96 413.98 822.80&#10;  C 413.46 822.07 413.42 821.35 413.42 820.50&#10;  C 412.49 667.51 413.11 512.74 412.11 398.02&#10;  C 412.07 392.47 406.59 385.33 402.50 381.50&#10;  C 397.56 376.87 393.89 374.48 389.54 371.75&#10;  C 386.64 369.92 383.83 368.81 380.91 367.36&#10;  C 377.08 365.46 373.08 365.18 368.97 364.33&#10;  C 366.93 363.91 364.57 363.98 362.32 363.62&#10;  Q 360.54 363.34 359.66 363.28&#10;  Q 340.45 361.97 321.54 365.33&#10;  Q 318.11 365.94 314.61 367.26&#10;  Q 311.21 368.54 307.86 369.87&#10;  Q 296.72 374.32 288.90 383.40&#10;  C 282.82 390.46 282.08 396.58 281.99 406.64&#10;  C 281.02 520.82 280.12 635.00 279.11 749.18&#10;  Q 279.10 750.04 278.45 749.48&#10;  Q 267.32 740.08 257.35 729.65&#10;  Q 210.16 680.27 184.79 616.95&#10;  Q 183.91 614.73 182.11 609.49&#10;  C 181.01 606.29 179.59 603.35 178.60 600.07&#10;  C 177.44 596.20 176.06 592.41 174.98 588.53&#10;  Q 167.86 562.92 164.70 536.50&#10;  C 158.35 483.31 166.49 426.97 185.01 375.14&#10;  C 201.49 329.02 230.03 287.62 264.14 252.97&#10;  Q 264.33 252.79 266.93 250.34&#10;  C 273.60 244.08 280.30 237.35 288.61 230.26&#10;  Z"/>
<path fill="#e10202" d="&#10;  M 288.61 230.26&#10;  Q 298.21 219.06 311.28 211.72&#10;  Q 316.28 209.56 321.10 207.19&#10;  C 323.23 206.14 325.25 206.35 327.39 205.66&#10;  Q 333.92 203.55 338.25 203.17&#10;  C 346.64 202.43 357.38 202.67 367.28 205.61&#10;  C 407.98 217.70 431.52 258.38 419.75 300.02&#10;  C 413.30 322.86 396.31 340.37 374.50 349.42&#10;  Q 371.38 350.71 362.60 353.17&#10;  Q 361.44 353.50 359.10 353.40&#10;  C 357.46 353.33 355.77 354.00 354.29 354.07&#10;  Q 346.50 354.43 342.41 354.26&#10;  Q 340.23 354.16 338.07 353.83&#10;  C 335.39 353.41 332.53 353.31 330.02 352.68&#10;  Q 300.25 345.19 283.40 319.99&#10;  C 281.11 316.56 279.15 312.50 277.24 308.58&#10;  C 275.38 304.76 274.38 300.51 273.18 296.44&#10;  C 270.47 287.20 270.94 275.83 272.18 266.36&#10;  C 272.78 261.77 274.54 255.96 275.88 252.26&#10;  Q 280.01 240.93 288.61 230.26&#10;  Z"/>
<path fill="#ffffff" d="&#10;  M 622.47 533.12&#10;  L 675.48 533.00&#10;  A 0.22 0.22 0.0 0 1 675.67 533.32&#10;  Q 651.64 576.50 627.53 619.76&#10;  Q 626.22 622.11 626.18 623.75&#10;  Q 625.05 669.37 625.00 715.00&#10;  C 624.95 755.92 624.19 796.83 624.20 837.75&#10;  Q 624.20 846.09 616.33 850.54&#10;  Q 604.79 857.08 592.22 852.77&#10;  C 586.10 850.68 580.59 845.26 580.61 838.50&#10;  Q 581.35 616.63 581.49 394.75&#10;  Q 581.49 393.98 582.39 391.24&#10;  Q 598.39 342.82 632.66 307.65&#10;  Q 658.48 281.16 689.63 261.20&#10;  Q 703.18 252.51 717.84 245.83&#10;  Q 721.98 243.94 726.16 242.14&#10;  Q 728.25 241.24 732.21 239.92&#10;  C 734.96 239.00 737.59 237.79 740.32 237.07&#10;  C 745.61 235.68 750.80 234.09 756.13 233.18&#10;  C 767.63 231.21 777.61 229.76 790.41 230.75&#10;  C 795.38 231.13 800.91 232.46 806.25 233.16&#10;  Q 809.76 233.62 820.96 238.28&#10;  C 856.53 253.07 874.00 291.73 866.15 328.76&#10;  C 862.94 343.88 854.16 359.75 843.84 372.53&#10;  C 837.94 379.84 832.86 387.44 827.13 393.88&#10;  Q 794.52 430.53 751.03 453.26&#10;  C 740.21 458.92 728.96 463.65 717.19 466.61&#10;  Q 701.72 470.49 687.00 470.97&#10;  C 663.08 471.74 638.96 461.37 622.15 444.78&#10;  A 0.65 0.64 22.1 0 0 621.05 445.24&#10;  L 622.06 532.72&#10;  A 0.41 0.41 0.0 0 0 622.47 533.12&#10;  Z"/>
<path fill="#ffffff" d="&#10;  M 810.72 788.40&#10;  Q 808.74 789.84 806.52 790.93&#10;  Q 799.52 794.33 792.59 797.91&#10;  Q 791.59 798.43 789.28 799.32&#10;  C 787.75 799.90 786.25 800.80 784.90 801.37&#10;  Q 770.70 807.38 766.00 809.13&#10;  Q 760.94 811.01 746.06 815.87&#10;  C 741.74 817.28 736.43 818.19 731.67 819.77&#10;  A 0.51 0.51 0.0 0 1 731.00 819.29&#10;  C 730.76 793.74 731.72 768.04 732.25 742.50&#10;  C 733.21 695.28 730.55 646.82 740.03 601.26&#10;  Q 742.99 587.04 748.33 573.53&#10;  C 754.24 558.55 762.51 547.41 774.39 534.39&#10;  Q 800.68 505.58 826.71 485.19&#10;  Q 838.13 476.24 854.76 467.76&#10;  C 858.24 465.99 862.00 464.55 865.70 463.02&#10;  Q 869.21 461.56 872.51 460.85&#10;  Q 876.02 460.10 879.55 459.48&#10;  Q 887.82 458.03 894.75 459.01&#10;  C 900.40 459.81 907.41 461.39 912.89 463.62&#10;  C 933.45 471.98 947.19 487.31 955.08 508.20&#10;  C 956.52 512.01 957.93 517.50 958.55 521.72&#10;  C 966.38 574.81 934.06 611.91 898.80 645.55&#10;  C 864.43 678.34 816.62 699.98 768.34 691.53&#10;  A 1.02 1.01 4.8 0 0 767.15 692.53&#10;  L 767.88 789.20&#10;  A 0.53 0.53 0.0 0 0 768.49 789.72&#10;  C 772.18 789.16 775.99 788.91 779.54 787.82&#10;  Q 784.81 786.21 790.06 784.51&#10;  C 792.67 783.67 795.63 782.11 798.53 781.06&#10;  Q 800.63 780.30 801.90 779.69&#10;  Q 822.67 769.68 841.88 756.89&#10;  Q 864.98 741.50 886.34 724.01&#10;  A 0.19 0.19 0.0 0 1 886.64 724.21&#10;  Q 886.52 724.65 886.14 725.14&#10;  C 871.08 744.47 853.44 760.12 833.50 774.27&#10;  Q 830.09 776.69 826.54 778.89&#10;  C 822.70 781.27 818.93 784.00 814.87 785.93&#10;  Q 812.64 786.99 810.72 788.40&#10;  Z"/>
</svg>