<?xml version="1.0" standalone="no"?><!DOCTYPE svg PUBLIC "-//W3C//DTD SVG 1.1//EN" "http://www.w3.org/Graphics/SVG/1.1/DTD/svg11.dtd"><svg t="1699023429207" class="icon" viewBox="0 0 1024 1024" version="1.1" xmlns="http://www.w3.org/2000/svg" p-id="13972" xmlns:xlink="http://www.w3.org/1999/xlink" width="200" height="200"><path d="M860.5 349.4c0-90.5-73.3-163.8-163.8-163.8-13.9 0-27.4 1.7-40.2 5-24.7-59.3-83.1-100.9-151.3-100.9-71.3 0-131.9 45.6-154.5 109.1-7.6-1.1-15.4-1.7-23.3-1.7-90.5 0-163.8 73.3-163.8 163.8 0 80 57.4 146.6 133.2 161l-3 88.3s98-38.6 211.4-38.6 209.2 38.6 209.2 38.6l-3.5-97.6c83.7-7.2 149.6-77.5 149.6-163.2z" fill="#1F53CC" p-id="13973"></path><path d="M327.3 360.9m-163.8 0a163.8 163.8 0 1 0 327.6 0 163.8 163.8 0 1 0-327.6 0Z" fill="#1F53CC" p-id="13974"></path><path d="M512.4 710.2c0-40.1-32.5-72.5-72.5-72.5-40.1 0-72.5 32.5-72.5 72.5 0 2.7 0.2 5.3 0.4 7.9 0 9.7-1.6 26.6-11.5 40.9-15.6 22.4-54.2 10.3-54.2 10.3s-30.2-10.3-21.5-52.8c9.9-34.2 53.2-27 53.2-27s-46-35.3-86.6 9.1c-38.6 52 1 120.7 49.7 132.1 43.7 15.5 132.1 19.8 191.5-54.6 18.4-23 24.3-43.2 23.8-60.2 0.1-1.9 0.2-3.8 0.2-5.7z" fill="#FECD44" p-id="13975"></path><path d="M512.4 710.2c0-40.1 32.5-72.5 72.5-72.5 40.1 0 72.5 32.5 72.5 72.5 0 2.7-0.2 5.3-0.4 7.9 0 9.7 1.6 26.6 11.5 40.9 15.6 22.4 54.2 10.3 54.2 10.3s30.2-10.3 21.5-52.8c-9.9-34.2-53.2-27-53.2-27s46-35.3 86.6 9.1c38.6 52-1 120.7-49.7 132.1-43.7 15.5-132.1 19.8-191.5-54.6-18.4-23-24.3-43.2-23.8-60.2-0.1-1.9-0.2-3.8-0.2-5.7z" fill="#FECD44" p-id="13976"></path><path d="M509.8 844.6C493.9 869.2 460 860 460 860l49.8 74.4 49.8-74.4s-33.9 9.3-49.8-15.4z" fill="#FC355D" p-id="13977"></path><path d="M193.7 266.1c-19 26.8-30.2 59.5-30.2 94.8 0 85.6 65.6 155.8 149.3 163.2 4.8 0.4 5.4-1.4 10.3-1.4 2.6 0 1.7-0.6 4.3-0.7l16.9-3.4c-7.5-1.8 20.6-6.1 13.9-8.9-199-84.2-179.6-202.5-164.5-243.6z" fill="#1943A3" p-id="13978"></path><path d="M642.1 263.2s35-19 46.6-77.4c-11.1 0.5-21.8 2.2-32.2 4.8-0.1-0.1 1.8 63.8-14.4 72.6z" fill="#13337A" p-id="13979"></path><path d="M375.5 510.7l-52.4 12-26.6 7.2-2.7 80.2s31.1-12.2 78.4-22.9c-11.6-37 3.3-76.5 3.3-76.5z" fill="#1943A3" p-id="13980"></path><path d="M296.8 521.8s84.2-24.5 195.9-17.4c0 0-98.3-9-196.6 33.8l0.7-16.4z" fill="#13337A" p-id="13981"></path><path d="M711.2 523.3l-68.4-6.3s67.4 35.8 71.4 88.1l-3-81.8z" fill="#1943A3" p-id="13982"></path><path d="M711.4 528.3c-4.3 0.2-8.4-0.1-12.7-0.2-2.1-0.1-4.3-0.2-6.4-0.3l-3.2-0.2c-1.1-0.1-2.1-0.2-3.2-0.3-8.5-0.7-16.8-2.4-25.1-4.4l-6.1-1.7c-2-0.6-4-1.3-6-2l-3-1-2.9-1.2c-2-0.8-3.9-1.6-5.8-2.4-7.7-3.4-15.1-7.5-22.1-12-7-4.6-13.6-9.8-19.7-15.4-3-2.9-6-5.7-8.7-8.8-2.8-3-5.4-6.3-7.9-9.5 24.8 21.4 54.2 35.9 85.1 41.5 1.9 0.4 3.9 0.6 5.8 0.9 1.9 0.3 3.9 0.6 5.8 0.7l5.8 0.6 5.8 0.3c1 0 1.9 0.1 2.9 0.1h8.7c3.9-0.1 8.3-0.1 12.2-0.5" fill="#13337A" p-id="13983"></path><path d="M462.3 95.3c-46 12.4-83.9 44.3-104.4 86.3l55.7 30.9c-13.9-52.9 27.3-98 48.7-117.2z" fill="#1943A3" p-id="13984"></path><path d="M361.9 173.8c-4.4 7.9-8.2 16.3-11.3 24.9 0 0 82.3 18.4 119 71.6 0.1 0-50.7-76.2-107.7-96.5z" fill="#13337A" p-id="13985"></path><path d="M460.1 860l49.8 74.4v-89.8c-16 24.7-49.8 15.4-49.8 15.4z" fill="#D92D50" p-id="13986"></path></svg>